<svg width="135" height="30" viewBox="0 0 135 30" fill="none" xmlns="http://www.w3.org/2000/svg">
<path d="M13.8078 6.49399C13.8276 4.85106 13.6974 3.03577 12.4244 1.76288C11.6134 0.952072 10.5124 0.497803 9.36333 0.500008C8.2143 0.502213 7.11146 0.960712 6.29741 1.77464C5.31522 2.75669 4.90118 3.72652 4.89797 5.39726C3.22698 5.40047 2.25702 5.81445 1.27482 6.7965C0.460778 7.61043 0.00221345 8.71311 7.99202e-06 9.86197C-0.00219746 11.0108 0.452137 12.1118 1.26306 12.9226C2.54169 14.201 4.35167 14.3368 5.99486 14.3058L13.7928 14.2908L13.8078 6.49399Z" fill="#FB4A4B"/>
<path d="M15.1905 3.2619C15.1905 1.73655 16.427 0.5 17.9524 0.5H26.2381C27.7635 0.5 29 1.73655 29 3.2619V11.5476C29 13.073 27.7635 14.3095 26.2381 14.3095H17.9524C16.427 14.3095 15.1905 13.073 15.1905 11.5476V3.2619Z" fill="#FFDE6B"/>
<path d="M0 17.9C0 17.2899 0.494619 16.7952 1.10476 16.7952H12.7048C13.3149 16.7952 13.8095 17.2899 13.8095 17.9C13.8095 18.5101 13.3149 19.0048 12.7048 19.0048H1.10476C0.494619 19.0048 0 18.5101 0 17.9Z" fill="#1ECFBA"/>
<path d="M0 22.5952C0 21.9851 0.494619 21.4905 1.10476 21.4905H12.7048C13.3149 21.4905 13.8095 21.9851 13.8095 22.5952C13.8095 23.2054 13.3149 23.7 12.7048 23.7H1.10476C0.494619 23.7 0 23.2054 0 22.5952Z" fill="#1ECFBA"/>
<path d="M0 27.2905C0 26.6803 0.494619 26.1857 1.10476 26.1857H12.7048C13.3149 26.1857 13.8095 26.6803 13.8095 27.2905C13.8095 27.9006 13.3149 28.3952 12.7048 28.3952H1.10476C0.494619 28.3952 0 27.9006 0 27.2905Z" fill="#1ECFBA"/>
<path fill-rule="evenodd" clip-rule="evenodd" d="M29 22.5952C29 26.4086 25.9086 29.5 22.0952 29.5C18.2818 29.5 15.1905 26.4086 15.1905 22.5952C15.1905 18.7818 18.2818 15.6905 22.0952 15.6905C25.9086 15.6905 29 18.7818 29 22.5952ZM23.559 24.059L25.0229 19.6676L20.6314 21.1314L19.1676 25.5229L23.559 24.059Z" fill="#618DFF"/>
<path d="M46.2661 24.7124L40.8616 17.1363H38.838V24.7124H36V7.43777H38.838V14.4957H40.8369L45.7725 7.43777H49.2521L43.3541 15.779L49.7951 24.7124H46.2661Z" fill="black"/>
<path d="M54.7685 22.0719H63.159V24.7124H50.3511V24.2682L58.5442 10.0783H50.7459V7.43777H62.8876V7.95601L54.7685 22.0719Z" fill="black"/>
<path d="M77.3802 7.43777H80.1688V24.7124H77.775L68.8169 12.3734V24.7124H66.0282V7.43777H68.5948L77.3802 19.5794V7.43777Z" fill="black"/>
<path d="M83.9687 24.7124V21.5536H86.9794V24.7124H83.9687Z" fill="black"/>
<path d="M96.2395 25.0333C94.2652 25.0333 92.6036 24.367 91.2545 23.0343C89.9219 21.6853 89.2556 20.0236 89.2556 18.0494C89.2556 16.0587 89.9219 14.397 91.2545 13.0644C92.6036 11.7318 94.2734 11.0655 96.2641 11.0655C97.8929 11.0655 99.3078 11.5261 100.509 12.4474C101.71 13.3687 102.491 14.5944 102.853 16.1245H100.139C99.7931 15.3677 99.2749 14.7754 98.5839 14.3476C97.8929 13.9034 97.1114 13.6813 96.2395 13.6813C95.4662 13.6813 94.7588 13.8705 94.1171 14.2489C93.4755 14.6273 92.9655 15.1538 92.5871 15.8283C92.2252 16.4864 92.0442 17.2268 92.0442 18.0494C92.0442 19.2833 92.4473 20.3197 93.2534 21.1588C94.0596 21.9979 95.0549 22.4174 96.2395 22.4174C97.1114 22.4174 97.8847 22.1953 98.5592 21.7511C99.2502 21.3069 99.7767 20.6735 100.139 19.8509H102.903C102.524 21.4138 101.726 22.6724 100.509 23.6266C99.3078 24.5644 97.8847 25.0333 96.2395 25.0333Z" fill="black"/>
<path d="M105.545 9.31331V6.5H108.383V9.31331H105.545ZM105.594 24.7124V11.3863H108.333V24.7124H105.594Z" fill="black"/>
<path d="M118.169 22.22H119.674V24.7124H117.651C116.68 24.7124 115.841 24.5232 115.134 24.1448C114.426 23.7665 113.883 23.2235 113.505 22.5161C113.126 21.7922 112.937 20.9449 112.937 19.9742V13.7307H110.544V13.2124L115.183 8.27682H115.652V11.3863H119.6V13.7307H115.677V19.7521C115.677 20.5418 115.89 21.1506 116.318 21.5783C116.746 22.0061 117.363 22.22 118.169 22.22Z" fill="black"/>
<path d="M131.845 11.3863H134.781L128.661 24.9592C127.888 26.6538 127.098 27.8301 126.292 28.4882C125.502 29.1627 124.441 29.5 123.109 29.5H121.751V27.0322H122.886C123.758 27.0322 124.4 26.8594 124.811 26.514C125.223 26.1685 125.675 25.4528 126.169 24.367L126.465 23.75L120.665 11.3863H123.651L127.871 20.6899L131.845 11.3863Z" fill="black"/>
</svg>
