<svg width="29" height="30" viewBox="0 0 29 30" fill="none" xmlns="http://www.w3.org/2000/svg">
<path d="M13.8078 6.49399C13.8276 4.85106 13.6974 3.03577 12.4244 1.76288C11.6134 0.952072 10.5124 0.497803 9.36333 0.500008C8.2143 0.502213 7.11146 0.960712 6.29741 1.77464C5.31522 2.75669 4.90118 3.72652 4.89797 5.39726C3.22698 5.40047 2.25702 5.81445 1.27482 6.7965C0.460778 7.61043 0.00221345 8.71311 7.99202e-06 9.86197C-0.00219746 11.0108 0.452137 12.1118 1.26306 12.9226C2.54169 14.201 4.35167 14.3368 5.99486 14.3058L13.7928 14.2908L13.8078 6.49399Z" fill="#FB4A4B"/>
<path d="M15.1905 3.2619C15.1905 1.73655 16.427 0.5 17.9524 0.5H26.2381C27.7635 0.5 29 1.73655 29 3.2619V11.5476C29 13.073 27.7635 14.3095 26.2381 14.3095H17.9524C16.427 14.3095 15.1905 13.073 15.1905 11.5476V3.2619Z" fill="#FFDE6B"/>
<path d="M0 17.9C0 17.2899 0.494619 16.7952 1.10476 16.7952H12.7048C13.3149 16.7952 13.8095 17.2899 13.8095 17.9C13.8095 18.5101 13.3149 19.0048 12.7048 19.0048H1.10476C0.494619 19.0048 0 18.5101 0 17.9Z" fill="#1ECFBA"/>
<path d="M0 22.5952C0 21.9851 0.494619 21.4905 1.10476 21.4905H12.7048C13.3149 21.4905 13.8095 21.9851 13.8095 22.5952C13.8095 23.2054 13.3149 23.7 12.7048 23.7H1.10476C0.494619 23.7 0 23.2054 0 22.5952Z" fill="#1ECFBA"/>
<path d="M0 27.2905C0 26.6803 0.494619 26.1857 1.10476 26.1857H12.7048C13.3149 26.1857 13.8095 26.6803 13.8095 27.2905C13.8095 27.9006 13.3149 28.3952 12.7048 28.3952H1.10476C0.494619 28.3952 0 27.9006 0 27.2905Z" fill="#1ECFBA"/>
<path fill-rule="evenodd" clip-rule="evenodd" d="M29 22.5952C29 26.4086 25.9086 29.5 22.0952 29.5C18.2818 29.5 15.1905 26.4086 15.1905 22.5952C15.1905 18.7818 18.2818 15.6905 22.0952 15.6905C25.9086 15.6905 29 18.7818 29 22.5952ZM23.559 24.059L25.0229 19.6676L20.6314 21.1314L19.1676 25.5229L23.559 24.059Z" fill="#618DFF"/>
</svg>
