<svg width="24" height="24" viewBox="0 0 24 24" fill="none" xmlns="http://www.w3.org/2000/svg">
<path opacity="0.4" d="M22 11.9999C22 17.5149 17.514 21.9999 12 21.9999C6.486 21.9999 2 17.5149 2 11.9999C2 6.48591 6.486 1.99991 12 1.99991C17.514 1.99991 22 6.48591 22 11.9999Z" fill="#C4CDD5"/>
<path d="M16.2211 10.5575C16.2211 10.7485 16.1481 10.9405 16.0021 11.0865L12.5321 14.5735C12.3911 14.7145 12.2001 14.7935 12.0001 14.7935C11.8011 14.7935 11.6101 14.7145 11.4691 14.5735L7.99707 11.0865C7.70507 10.7935 7.70507 10.3195 7.99907 10.0265C8.29307 9.73451 8.76807 9.73551 9.06007 10.0285L12.0001 12.9815L14.9401 10.0285C15.2321 9.73551 15.7061 9.73451 16.0001 10.0265C16.1481 10.1725 16.2211 10.3655 16.2211 10.5575Z" fill="#C4CDD5"/>
</svg>
